<?xml version="1.0" encoding="utf-8"?>
<!-- Generator: Adobe Illustrator 27.5.0, SVG Export Plug-In . SVG Version: 6.00 Build 0)  -->
<svg version="1.1" xmlns="http://www.w3.org/2000/svg" xmlns:xlink="http://www.w3.org/1999/xlink" x="0px" y="0px"
	 viewBox="0 0 750 500" style="enable-background:new 0 0 750 500;" xml:space="preserve">
<g id="BACKGROUND">
</g>
<g id="OBJECTS">
	<g>
		<g>
			<path style="opacity:0.62;fill:#AEDCFE;" d="M127.871,386.486c-25.706-12.478-48.952-32.547-57.621-58.665
				c-7.192-21.671-3.624-45.345,5.235-66.122c19.93-46.747,62.952-74.876,108.209-84.484c23.111-4.906,46.213-0.791,68.997-5.244
				c29.309-5.729,56.878-19.559,82.598-35.906c37.344-23.736,72.372-52.166,114.995-66.062
				c64.082-20.892,140.735-3.592,189.857,42.397c49.122,45.989,68.593,118.322,48.946,180.048
				c-19.647,61.726-77.293,110.208-144.114,121.811c-56.374,9.789-114.436-4.97-171.944-7.721
				C290.295,402.578,202.226,422.578,127.871,386.486z"/>
			
				<ellipse transform="matrix(0.2298 -0.9732 0.9732 0.2298 46.0537 237.7658)" style="opacity:0.62;fill:#AEDCFE;" cx="173.242" cy="89.787" rx="50.034" ry="50.034"/>
			
				<ellipse transform="matrix(0.9924 -0.1227 0.1227 0.9924 -5.9785 82.5024)" style="opacity:0.62;fill:#AEDCFE;" cx="666.804" cy="89.787" rx="17.774" ry="17.774"/>
		</g>
		<g>
			<g>
				<path style="fill:#374C7F;" d="M616.582,198.171H495.145c-3.077,0-5.571-2.494-5.571-5.571v-74.868
					c0-3.077,2.494-5.571,5.571-5.571h121.438c3.077,0,5.571,2.494,5.571,5.571V192.6
					C622.154,195.677,619.659,198.171,616.582,198.171z"/>
				<g>
					<path style="fill:#BCC0CE;" d="M613.641,202.747H488.577c-2.908,0-5.266-2.357-5.266-5.266v-77.435
						c0-2.908,2.357-5.266,5.266-5.266h125.064c2.908,0,5.266,2.357,5.266,5.266v77.435
						C618.906,200.389,616.549,202.747,613.641,202.747z"/>
					<path style="fill:#FFFFFF;" d="M612.78,200.359H489.274c-1.894,0-3.43-1.536-3.43-3.43v-71.262
						c0-1.484,1.203-2.687,2.687-2.687h124.992c1.484,0,2.687,1.203,2.687,2.687v71.262
						C616.21,198.823,614.674,200.359,612.78,200.359z"/>
					<path style="fill:#374C7F;" d="M607.982,138.043H494.683c-3.533,0-6.396-2.864-6.396-6.396v-0.129
						c0-3.533,2.864-6.396,6.396-6.396h113.299c3.532,0,6.396,2.864,6.396,6.396v0.129
						C614.378,135.179,611.515,138.043,607.982,138.043z"/>
					<path style="fill:#FFFFFF;" d="M590.147,133.781H514.86c-0.685,0-1.241-0.555-1.241-1.241v-2.436
						c0-0.685,0.556-1.241,1.241-1.241h75.287c0.685,0,1.241,0.555,1.241,1.241v2.436
						C591.388,133.225,590.832,133.781,590.147,133.781z"/>
					<path style="fill:#DEF6F8;" d="M493.946,133.781h22.524c0.634,0,1.148-0.514,1.148-1.148v-2.622
						c0-0.634-0.514-1.148-1.148-1.148h-22.524c-0.634,0-1.148,0.514-1.148,1.148v2.622
						C492.798,133.267,493.312,133.781,493.946,133.781z"/>
					
						<line style="fill:none;stroke:#57595E;stroke-width:0.5975;stroke-miterlimit:10;" x1="520.364" y1="131.322" x2="545.916" y2="131.322"/>
					
						<line style="fill:none;stroke:#57595E;stroke-width:0.5975;stroke-miterlimit:10;" x1="496.168" y1="131.322" x2="513.62" y2="131.322"/>
					<path style="fill:#F5AD49;" d="M590.147,128.864h-7.646v4.917h7.646c0.685,0,1.241-0.556,1.241-1.241v-2.436
						C591.388,129.419,590.833,128.864,590.147,128.864z"/>
					<g>
						<path style="fill:none;stroke:#FFFFFF;stroke-width:0.3983;stroke-miterlimit:10;" d="M587.24,130.844
							c0,0.715-0.579,1.294-1.294,1.294c-0.715,0-1.295-0.58-1.295-1.294c0-0.715,0.58-1.295,1.295-1.295
							C586.66,129.55,587.24,130.129,587.24,130.844z"/>
						
							<line style="fill:none;stroke:#FFFFFF;stroke-width:0.3983;stroke-miterlimit:10;" x1="586.945" y1="131.667" x2="588.324" y2="133.046"/>
					</g>
					<polyline style="fill:none;stroke:#FFFFFF;stroke-width:0.8901;stroke-linecap:round;stroke-miterlimit:10;" points="
						597.551,127.918 600.453,127.918 601.846,132.021 607.79,132.021 608.431,128.783 					"/>
					<ellipse style="fill:#F5AD49;" cx="604.694" cy="128.857" rx="1.242" ry="1.397"/>
					<path style="fill:#FFFFFF;" d="M603.598,134.32c0,0.592-0.48,1.072-1.072,1.072c-0.592,0-1.071-0.48-1.071-1.072
						c0-0.592,0.48-1.072,1.071-1.072C603.118,133.249,603.598,133.729,603.598,134.32z"/>
					<path style="fill:#FFFFFF;" d="M607.592,134.32c0,0.592-0.48,1.072-1.071,1.072c-0.592,0-1.071-0.48-1.071-1.072
						c0-0.592,0.48-1.072,1.071-1.072C607.112,133.249,607.592,133.729,607.592,134.32z"/>
					<g>
						<path style="fill:#374C7F;" d="M596.059,196.258h-40.847c-0.824,0-1.492-0.668-1.492-1.492v-3.646
							c0-0.824,0.668-1.492,1.492-1.492h40.847c0.824,0,1.492,0.668,1.492,1.492v3.646
							C597.551,195.59,596.883,196.258,596.059,196.258z"/>
						<path style="fill:#FF4747;" d="M596.059,195.468h-40.847c-0.824,0-1.492-0.668-1.492-1.492v-3.646
							c0-0.824,0.668-1.492,1.492-1.492h40.847c0.824,0,1.492,0.668,1.492,1.492v3.646
							C597.551,194.8,596.883,195.468,596.059,195.468z"/>
					</g>
					<g>
						<polygon style="fill:#F5AD49;" points="576.562,165.413 577.412,167.134 579.311,167.41 577.936,168.75 578.261,170.641 
							576.562,169.748 574.863,170.641 575.188,168.75 573.814,167.41 575.713,167.134 						"/>
						<polygon style="fill:#F5AD49;" points="582.588,165.413 583.437,167.134 585.336,167.41 583.962,168.75 584.286,170.641 
							582.588,169.748 580.889,170.641 581.213,168.75 579.839,167.41 581.738,167.134 						"/>
						<polygon style="fill:#F5AD49;" points="588.613,165.413 589.462,167.134 591.362,167.41 589.987,168.75 590.312,170.641 
							588.613,169.748 586.914,170.641 587.239,168.75 585.864,167.41 587.764,167.134 						"/>
						<polygon style="fill:#F5AD49;" points="594.638,165.413 595.488,167.134 597.387,167.41 596.013,168.75 596.337,170.641 
							594.638,169.748 592.94,170.641 593.264,168.75 591.89,167.41 593.789,167.134 						"/>
						<polygon style="fill:#F5AD49;" points="600.664,165.413 601.513,167.134 603.412,167.41 602.038,168.75 602.362,170.641 
							600.664,169.748 598.965,170.641 599.289,168.75 597.915,167.41 599.814,167.134 						"/>
					</g>
					<g>
						<path style="fill:#F5AD49;" d="M602.117,184.994h-50.721c-1.023,0-1.852-0.829-1.852-1.852v-4.527
							c0-1.023,0.829-1.852,1.852-1.852h50.721c1.023,0,1.852,0.829,1.852,1.852v4.527
							C603.969,184.165,603.14,184.994,602.117,184.994z"/>
						<g>
							<g>
								<rect x="588.127" y="178.315" style="fill:#374C7F;" width="0.971" height="5.127"/>
								<rect x="586.05" y="180.393" style="fill:#374C7F;" width="5.127" height="0.971"/>
								
									<rect x="588.127" y="178.315" transform="matrix(0.7072 -0.707 0.707 0.7072 44.4768 469.1455)" style="fill:#374C7F;" width="0.971" height="5.127"/>
								
									<rect x="586.05" y="180.393" transform="matrix(0.7071 -0.7072 0.7072 0.7071 44.5188 469.2248)" style="fill:#374C7F;" width="5.127" height="0.971"/>
							</g>
							<g>
								<rect x="579.934" y="178.315" style="fill:#374C7F;" width="0.971" height="5.127"/>
								<rect x="577.856" y="180.393" style="fill:#374C7F;" width="5.127" height="0.971"/>
								
									<rect x="579.934" y="178.315" transform="matrix(0.7072 -0.7071 0.7071 0.7072 42.0802 463.3575)" style="fill:#374C7F;" width="0.971" height="5.127"/>
								
									<rect x="577.856" y="180.393" transform="matrix(0.7071 -0.7071 0.7071 0.7071 42.1008 463.3967)" style="fill:#374C7F;" width="5.127" height="0.971"/>
							</g>
							<g>
								<rect x="571.741" y="178.315" style="fill:#374C7F;" width="0.971" height="5.127"/>
								<rect x="569.663" y="180.393" style="fill:#374C7F;" width="5.127" height="0.971"/>
								
									<rect x="571.741" y="178.315" transform="matrix(0.7071 -0.7071 0.7071 0.7071 39.701 457.6031)" style="fill:#374C7F;" width="0.971" height="5.127"/>
								
									<rect x="569.663" y="180.393" transform="matrix(0.7071 -0.7072 0.7072 0.7071 39.7211 457.6419)" style="fill:#374C7F;" width="5.127" height="0.971"/>
							</g>
							<g>
								<rect x="563.547" y="178.315" style="fill:#374C7F;" width="0.971" height="5.127"/>
								<rect x="561.47" y="180.393" style="fill:#374C7F;" width="5.127" height="0.971"/>
								
									<rect x="563.547" y="178.315" transform="matrix(0.7072 -0.707 0.707 0.7072 37.2791 451.7665)" style="fill:#374C7F;" width="0.971" height="5.127"/>
								
									<rect x="561.47" y="180.393" transform="matrix(0.7071 -0.7072 0.7072 0.7071 37.3185 451.8432)" style="fill:#374C7F;" width="5.127" height="0.971"/>
							</g>
						</g>
					</g>
					<path style="fill:#374C7F;" d="M491.85,119.126c0,0.984-0.798,1.782-1.781,1.782c-0.984,0-1.781-0.798-1.781-1.782
						c0-0.984,0.798-1.781,1.781-1.781C491.052,117.344,491.85,118.142,491.85,119.126z"/>
					<path style="fill:#FF4747;" d="M499.008,119.126c0,0.984-0.798,1.782-1.781,1.782c-0.984,0-1.781-0.798-1.781-1.782
						c0-0.984,0.798-1.781,1.781-1.781C498.21,117.344,499.008,118.142,499.008,119.126z"/>
					<path style="fill:#FFFFFF;" d="M506.166,119.126c0,0.984-0.798,1.782-1.781,1.782s-1.781-0.798-1.781-1.782
						c0-0.984,0.798-1.781,1.781-1.781S506.166,118.142,506.166,119.126z"/>
					
						<line style="fill:none;stroke:#45619B;stroke-width:1.2141;stroke-linecap:round;stroke-miterlimit:10;" x1="549.543" y1="145.173" x2="603.969" y2="145.173"/>
					
						<line style="fill:none;stroke:#45619B;stroke-width:1.2141;stroke-linecap:round;stroke-miterlimit:10;" x1="549.543" y1="153.055" x2="603.969" y2="153.055"/>
					
						<line style="fill:none;stroke:#45619B;stroke-width:1.2141;stroke-linecap:round;stroke-miterlimit:10;" x1="549.543" y1="160.937" x2="603.969" y2="160.937"/>
					
						<line style="fill:none;stroke:#45619B;stroke-width:1.2141;stroke-linecap:round;stroke-miterlimit:10;" x1="549.543" y1="168.819" x2="570.07" y2="168.819"/>
					<g>
						<path style="fill:#374C7F;" d="M524.691,181.303l-8.909-1.218l-8.91,1.218l-9.87-9.048c-2.681-2.458-4.218-5.953-4.218-9.589
							v-6.868c0-7.458,6.068-13.526,13.526-13.526h18.944c7.458,0,13.526,6.068,13.526,13.526v6.868
							c0,3.637-1.537,7.132-4.218,9.589L524.691,181.303z M506.31,148.759c-3.881,0-7.039,3.158-7.039,7.039v6.868
							c0,1.823,0.771,3.575,2.115,4.807l7.625,6.99l6.771-0.926l6.771,0.926l7.625-6.99c1.344-1.232,2.115-2.984,2.115-4.807v-6.868
							c0-3.881-3.158-7.039-7.039-7.039H506.31z"/>
						<path style="fill:#28355F;" d="M530.037,150.641L530.037,150.641c1.386,1.286,2.255,3.122,2.255,5.158v6.868
							c0,1.823-0.771,3.575-2.115,4.807l-5.154,4.725l2.577,1.794l3.991-3.603c2.137-1.929,3.356-4.673,3.356-7.551v-4.09
							C534.947,152.917,530.037,150.641,530.037,150.641z"/>
						<path style="fill:#374C7F;" d="M515.782,164.463c-9.046,0-16.379,7.333-16.379,16.379c0,4.825,2.087,9.163,5.408,12.161
							c3.345,1.518,7.059,2.364,10.971,2.364c3.912,0,7.627-0.846,10.971-2.364c3.32-2.997,5.407-7.335,5.407-12.161
							C532.16,171.796,524.827,164.463,515.782,164.463z"/>
						<path style="fill:#DEF6F8;" d="M531.846,184.044c-9.46,3.381-17.76,3.184-23.117,2.4c-4.453-0.652-7.646-1.801-9.004-2.354
							c0.13,0.647,0.298,1.281,0.502,1.898c1.721,0.623,4.553,1.37,8.204,2.019c2.058,0.366,4.479,0.639,6.976,0.506
							c4.562-0.242,10.029-0.637,15.958-2.62C531.56,185.291,531.722,184.674,531.846,184.044z"/>
						<path style="opacity:0.31;fill:#9BABB8;" d="M523.633,166.465c-2.331-1.276-5.007-2.002-7.852-2.002
							c-5.246,0-9.916,2.467-12.913,6.303c1.595,2.953,6.749,4.09,12.133,2.517C519.415,171.995,522.72,169.255,523.633,166.465z"/>
						<path style="opacity:0.4;fill:#19181B;" d="M516.502,195.357c3.648-0.097,7.112-0.929,10.251-2.354
							c3.32-2.997,5.407-7.335,5.407-12.161c0-0.185-0.004-0.368-0.01-0.551C527.952,181.285,518.455,184.69,516.502,195.357z"/>
					</g>
				</g>
			</g>
			<g>
				<path style="fill:#374C7F;" d="M325.705,186.713H170.278c-3.938,0-7.131-3.193-7.131-7.131V83.759
					c0-3.938,3.193-7.131,7.131-7.131h155.427c3.938,0,7.131,3.192,7.131,7.131v95.823
					C332.836,183.52,329.644,186.713,325.705,186.713z"/>
				<g>
					<path style="fill:#BCC0CE;" d="M332.044,181.624H173.609c-3.684,0-6.671-2.986-6.671-6.671V76.856
						c0-3.684,2.986-6.671,6.671-6.671h158.434c3.684,0,6.67,2.987,6.67,6.671v98.097
						C338.714,178.637,335.728,181.624,332.044,181.624z"/>
					<path style="fill:#FFFFFF;" d="M330.953,178.599H174.492c-2.4,0-4.345-1.945-4.345-4.345V83.977
						c0-1.88,1.524-3.404,3.404-3.404h158.344c1.88,0,3.404,1.524,3.404,3.404v90.277
						C335.298,176.653,333.353,178.599,330.953,178.599z"/>
					<path style="fill:#374C7F;" d="M324.875,99.655H181.345c-4.475,0-8.103-3.628-8.103-8.103v-0.164
						c0-4.475,3.628-8.103,8.103-8.103h143.531c4.475,0,8.103,3.628,8.103,8.103v0.164
						C332.978,96.027,329.351,99.655,324.875,99.655z"/>
					<path style="fill:#FFFFFF;" d="M302.281,94.256h-95.375c-0.868,0-1.572-0.704-1.572-1.572v-3.085
						c0-0.868,0.704-1.572,1.572-1.572h95.375c0.868,0,1.572,0.704,1.572,1.572v3.085C303.853,93.552,303.15,94.256,302.281,94.256z
						"/>
					<path style="fill:#DEF6F8;" d="M180.411,94.256h28.535c0.803,0,1.454-0.651,1.454-1.454v-3.321
						c0-0.803-0.651-1.454-1.454-1.454h-28.535c-0.803,0-1.454,0.651-1.454,1.454v3.321
						C178.957,93.605,179.608,94.256,180.411,94.256z"/>
					
						<line style="fill:none;stroke:#57595E;stroke-width:0.7569;stroke-miterlimit:10;" x1="213.878" y1="91.141" x2="246.248" y2="91.141"/>
					
						<line style="fill:none;stroke:#57595E;stroke-width:0.7569;stroke-miterlimit:10;" x1="183.226" y1="91.141" x2="205.334" y2="91.141"/>
					<path style="fill:#F5AD49;" d="M302.281,88.027h-9.686v6.229h9.686c0.868,0,1.572-0.704,1.572-1.572v-3.085
						C303.853,88.73,303.15,88.027,302.281,88.027z"/>
					<g>
						<circle style="fill:none;stroke:#FFFFFF;stroke-width:0.5046;stroke-miterlimit:10;" cx="296.958" cy="90.536" r="1.64"/>
						
							<line style="fill:none;stroke:#FFFFFF;stroke-width:0.5046;stroke-miterlimit:10;" x1="298.224" y1="91.578" x2="299.971" y2="93.325"/>
					</g>
					<polyline style="fill:none;stroke:#FFFFFF;stroke-width:1.1276;stroke-linecap:round;stroke-miterlimit:10;" points="
						311.66,86.828 315.337,86.828 317.101,92.026 324.632,92.026 325.444,87.924 					"/>
					<ellipse style="fill:#F5AD49;" cx="320.71" cy="88.017" rx="1.573" ry="1.77"/>
					<path style="fill:#FFFFFF;" d="M319.321,94.939c0,0.75-0.608,1.357-1.357,1.357c-0.75,0-1.357-0.608-1.357-1.357
						c0-0.75,0.608-1.357,1.357-1.357C318.714,93.582,319.321,94.189,319.321,94.939z"/>
					<path style="fill:#FFFFFF;" d="M324.381,94.939c0,0.75-0.608,1.357-1.357,1.357c-0.75,0-1.357-0.608-1.357-1.357
						c0-0.75,0.608-1.357,1.357-1.357C323.773,93.582,324.381,94.189,324.381,94.939z"/>
					<g>
						<path style="fill:#374C7F;" d="M309.771,173.403h-51.745c-1.044,0-1.89-0.846-1.89-1.89v-4.619c0-1.044,0.846-1.89,1.89-1.89
							h51.745c1.044,0,1.89,0.846,1.89,1.89v4.619C311.66,172.557,310.814,173.403,309.771,173.403z"/>
						<path style="fill:#FF4747;" d="M309.771,172.402h-51.745c-1.044,0-1.89-0.846-1.89-1.89v-4.619c0-1.044,0.846-1.89,1.89-1.89
							h51.745c1.044,0,1.89,0.846,1.89,1.89v4.619C311.66,171.556,310.814,172.402,309.771,172.402z"/>
					</g>
					<g>
						<polygon style="fill:#F5AD49;" points="285.072,134.329 286.148,136.509 288.554,136.858 286.813,138.555 287.224,140.952 
							285.072,139.82 282.92,140.952 283.331,138.555 281.59,136.858 283.996,136.509 						"/>
						<polygon style="fill:#F5AD49;" points="292.705,134.329 293.781,136.509 296.187,136.858 294.446,138.555 294.857,140.952 
							292.705,139.82 290.553,140.952 290.964,138.555 289.223,136.858 291.629,136.509 						"/>
						<polygon style="fill:#F5AD49;" points="300.338,134.329 301.414,136.509 303.82,136.858 302.079,138.555 302.49,140.952 
							300.338,139.82 298.186,140.952 298.597,138.555 296.856,136.858 299.262,136.509 						"/>
						<polygon style="fill:#F5AD49;" points="307.971,134.329 309.047,136.509 311.453,136.858 309.712,138.555 310.123,140.952 
							307.971,139.82 305.819,140.952 306.23,138.555 304.489,136.858 306.895,136.509 						"/>
						<polygon style="fill:#F5AD49;" points="315.604,134.329 316.68,136.509 319.086,136.858 317.345,138.555 317.756,140.952 
							315.604,139.82 313.452,140.952 313.863,138.555 312.122,136.858 314.528,136.509 						"/>
					</g>
					<g>
						<path style="fill:#F5AD49;" d="M317.445,159.134H253.19c-1.296,0-2.347-1.051-2.347-2.347v-5.736
							c0-1.296,1.051-2.347,2.347-2.347h64.255c1.296,0,2.347,1.051,2.347,2.347v5.736
							C319.791,158.084,318.741,159.134,317.445,159.134z"/>
						<g>
							<g>
								<rect x="299.723" y="150.673" style="fill:#374C7F;" width="1.231" height="6.495"/>
								<rect x="297.091" y="153.305" style="fill:#374C7F;" width="6.495" height="1.231"/>
								
									<rect x="299.723" y="150.673" transform="matrix(0.7071 -0.7071 0.7071 0.7071 -20.8706 257.4541)" style="fill:#374C7F;" width="1.231" height="6.495"/>
								
									<rect x="297.091" y="153.305" transform="matrix(0.7071 -0.7071 0.7071 0.7071 -20.8709 257.4531)" style="fill:#374C7F;" width="6.495" height="1.231"/>
							</g>
							<g>
								<rect x="289.343" y="150.673" style="fill:#374C7F;" width="1.23" height="6.495"/>
								<rect x="286.711" y="153.305" style="fill:#374C7F;" width="6.495" height="1.231"/>
								
									<rect x="289.343" y="150.673" transform="matrix(0.7071 -0.7071 0.7071 0.7071 -23.9055 250.1317)" style="fill:#374C7F;" width="1.231" height="6.495"/>
								
									<rect x="286.711" y="153.305" transform="matrix(0.7071 -0.7071 0.7071 0.7071 -23.9166 250.0956)" style="fill:#374C7F;" width="6.495" height="1.231"/>
							</g>
							<g>
								<rect x="278.964" y="150.673" style="fill:#374C7F;" width="1.231" height="6.495"/>
								<rect x="276.331" y="153.305" style="fill:#374C7F;" width="6.495" height="1.231"/>
								
									<rect x="278.963" y="150.673" transform="matrix(0.7071 -0.7071 0.7071 0.7071 -26.9511 242.7742)" style="fill:#374C7F;" width="1.231" height="6.495"/>
								
									<rect x="276.331" y="153.305" transform="matrix(0.7071 -0.7071 0.7071 0.7071 -26.9511 242.7742)" style="fill:#374C7F;" width="6.495" height="1.231"/>
							</g>
							<g>
								<rect x="268.584" y="150.673" style="fill:#374C7F;" width="1.23" height="6.495"/>
								<rect x="265.952" y="153.305" style="fill:#374C7F;" width="6.495" height="1.231"/>
								
									<rect x="268.584" y="150.673" transform="matrix(0.7071 -0.7071 0.7071 0.7071 -29.9866 235.4519)" style="fill:#374C7F;" width="1.231" height="6.495"/>
								
									<rect x="265.952" y="153.305" transform="matrix(0.7071 -0.7071 0.7071 0.7071 -29.9962 235.4167)" style="fill:#374C7F;" width="6.495" height="1.231"/>
							</g>
						</g>
					</g>
					<g>
						
							<ellipse transform="matrix(0.6345 -0.773 0.773 0.6345 -42.6024 226.4007)" style="fill:#374C7F;" cx="218.067" cy="158.243" rx="15.937" ry="11.868"/>
						<path style="fill:#28355F;" d="M211.175,152.586c-5.584,6.804-6.515,15.271-2.079,18.912
							c4.436,3.641,12.56,1.078,18.144-5.726c5.584-6.803,6.515-15.271,2.079-18.912
							C224.882,143.219,216.759,145.782,211.175,152.586z"/>
						
							<ellipse transform="matrix(0.6345 -0.773 0.773 0.6345 -43.2773 229.0932)" style="fill:#374C7F;" cx="220.576" cy="160.303" rx="15.937" ry="10.392"/>
						<path style="fill:#9BABB8;" d="M216.08,156.612c-4.355,5.306-4.924,12.039-1.27,15.038c3.654,2.999,10.146,1.129,14.502-4.177
							s4.924-12.039,1.27-15.038C226.927,149.436,220.435,151.306,216.08,156.612z"/>
						<path style="fill:#DEF6F8;" d="M218.067,158.243c-4.355,5.306-5.369,11.674-2.264,14.222
							c3.105,2.549,9.153,0.313,13.508-4.993s5.369-11.673,2.264-14.222C228.47,150.702,222.422,152.937,218.067,158.243z"/>
						<path style="fill:#28355F;" d="M221.706,150.921l7.128-1.881c0,0,8.705-24.212-7.21-39.71
							c-8.521-8.283-13.908-5.385-15.415-4.769c-1.507,0.615-4.368,1.972-4.368,1.972s5.455-1.018,11.058,4.512
							c5.62,5.556,11.955,15.632,10.179,29.833C221.723,149.503,221.706,150.921,221.706,150.921z"/>
						<path style="fill:#374C7F;" d="M222.573,128.512c-1.71-7.826-5.856-13.692-9.676-17.467
							c-5.602-5.53-11.058-4.512-11.058-4.512s2.861-1.357,4.368-1.972c1.507-0.616,6.894-3.514,15.415,4.769
							c5.217,5.08,7.788,11.096,8.888,16.889L222.573,128.512z"/>
						<path style="fill:#44555F;" d="M221.706,150.921c0.395-0.039,1.159-3.498,1.244-3.82c0.844-3.178,1.329-6.459,1.424-9.746
							c0.126-4.393-0.471-8.813-1.917-12.97c-1.788-5.139-4.862-9.731-8.778-13.493c-2.313-2.222-4.805-4.499-8.139-4.8
							c-2.467-0.223-4.903,0.63-6.865,2.103c-1.961,1.472-3.446,3.515-4.433,5.746c-0.572,1.294-0.981,2.659-1.239,4.05
							c-0.073,0.39-0.501,4.591-0.337,4.581c7.353-0.439,7.353-0.439,7.353-0.439s0.652-11.791,5.256-15.075
							c3.653,0.899,24.474,12.666,15.392,43.966C221.698,150.921,221.706,150.921,221.706,150.921z"/>
						<path style="fill:#28355F;" d="M205.276,107.056c-4.605,3.284-5.256,15.075-5.256,15.075s0,0-7.353,0.439
							c-0.01,0.001-0.018-0.016-0.024-0.048c0.306-0.132,0.632-0.272,0.983-0.422C194.751,106.657,205.276,107.056,205.276,107.056z
							"/>
						<path style="fill:#374C7F;" d="M184.522,128.036c-5.584,6.803-6.252,15.487-1.491,19.395
							c4.761,3.908,13.148,1.561,18.732-5.242c5.584-6.803,6.252-15.487,1.491-19.395
							C198.493,118.885,190.106,121.232,184.522,128.036z"/>
						
							<ellipse transform="matrix(0.6345 -0.773 0.773 0.6345 -34.2227 200.2287)" style="fill:#28355F;" cx="194.587" cy="136.297" rx="15.937" ry="11.153"/>
						<path style="fill:#374C7F;" d="M188.19,131.047c-5.584,6.803-6.515,15.271-2.079,18.912c4.436,3.641,12.56,1.078,18.144-5.725
							c5.584-6.804,6.515-15.271,2.079-18.912C201.898,121.68,193.775,124.243,188.19,131.047z"/>
						<path style="fill:#28355F;" d="M192.297,134.417c-3.291,4.009-3.839,8.999-1.225,11.145c2.614,2.146,7.401,0.635,10.692-3.374
							c3.291-4.009,3.839-8.999,1.225-11.145C200.375,128.898,195.587,130.408,192.297,134.417z"/>
						<path style="fill:#9BABB8;" d="M200.956,141.526c3.12-3.801,3.773-8.48,1.606-10.785c0.147,0.092,0.291,0.191,0.427,0.303
							c2.614,2.146,2.066,7.136-1.225,11.145c-3.291,4.009-8.078,5.52-10.692,3.374c-0.136-0.112-0.262-0.233-0.381-0.359
							C193.374,146.879,197.837,145.326,200.956,141.526z"/>
						<path style="fill:#FF4747;" d="M221.194,160.597c-2.398,2.922-3.074,6.332-1.509,7.617c1.565,1.285,4.778-0.043,7.176-2.965
							c2.398-2.922,3.074-6.332,1.509-7.617C226.806,156.348,223.593,157.675,221.194,160.597z"/>
					</g>
					<circle style="fill:#374C7F;" cx="175.499" cy="75.69" r="2.257"/>
					<circle style="fill:#FF4747;" cx="184.567" cy="75.69" r="2.257"/>
					<circle style="fill:#FFFFFF;" cx="193.635" cy="75.69" r="2.257"/>
					
						<line style="fill:none;stroke:#45619B;stroke-width:1.5381;stroke-linecap:round;stroke-miterlimit:10;" x1="250.843" y1="108.687" x2="319.791" y2="108.687"/>
					
						<line style="fill:none;stroke:#45619B;stroke-width:1.5381;stroke-linecap:round;stroke-miterlimit:10;" x1="250.843" y1="118.673" x2="319.791" y2="118.673"/>
					
						<line style="fill:none;stroke:#45619B;stroke-width:1.5381;stroke-linecap:round;stroke-miterlimit:10;" x1="250.843" y1="128.658" x2="319.791" y2="128.658"/>
					
						<line style="fill:none;stroke:#45619B;stroke-width:1.5381;stroke-linecap:round;stroke-miterlimit:10;" x1="250.843" y1="138.643" x2="276.848" y2="138.643"/>
				</g>
			</g>
			<g>
				<path style="fill:#374C7F;" d="M308.356,425.922H96.084c-5.379,0-9.739-4.36-9.739-9.739V285.315
					c0-5.379,4.36-9.739,9.739-9.739h212.272c5.379,0,9.739,4.36,9.739,9.739v130.868
					C318.095,421.562,313.735,425.922,308.356,425.922z"/>
				<g>
					<path style="fill:#BCC0CE;" d="M313.85,420.217H100.099c-4.97,0-8.999-4.029-8.999-8.999V278.87
						c0-4.97,4.029-8.999,8.999-8.999H313.85c4.97,0,8.999,4.029,8.999,8.999v132.347
						C322.85,416.188,318.821,420.217,313.85,420.217z"/>
					<path style="fill:#FFFFFF;" d="M312.379,416.136H101.29c-3.238,0-5.862-2.625-5.862-5.862V288.477
						c0-2.536,2.056-4.593,4.593-4.593h213.628c2.536,0,4.593,2.056,4.593,4.593v121.796
						C318.242,413.511,315.617,416.136,312.379,416.136z"/>
					<path style="fill:#374C7F;" d="M304.18,309.629H110.536c-6.038,0-10.932-4.895-10.932-10.932v-0.221
						c0-6.038,4.894-10.932,10.932-10.932H304.18c6.038,0,10.932,4.894,10.932,10.932v0.221
						C315.111,304.735,310.217,309.629,304.18,309.629z"/>
					<path style="fill:#FFFFFF;" d="M273.697,302.345H145.022c-1.171,0-2.121-0.949-2.121-2.121v-4.163
						c0-1.171,0.949-2.121,2.121-2.121h128.675c1.171,0,2.121,0.949,2.121,2.121v4.163
						C275.818,301.395,274.868,302.345,273.697,302.345z"/>
					<path style="fill:#DEF6F8;" d="M109.276,302.345h38.497c1.083,0,1.962-0.878,1.962-1.962v-4.481
						c0-1.083-0.878-1.962-1.962-1.962h-38.497c-1.083,0-1.962,0.878-1.962,1.962v4.481
						C107.315,301.466,108.193,302.345,109.276,302.345z"/>
					
						<line style="fill:none;stroke:#57595E;stroke-width:1.0212;stroke-miterlimit:10;" x1="154.428" y1="298.143" x2="198.1" y2="298.143"/>
					
						<line style="fill:none;stroke:#57595E;stroke-width:1.0212;stroke-miterlimit:10;" x1="113.074" y1="298.143" x2="142.901" y2="298.143"/>
					<path style="fill:#F5AD49;" d="M273.697,293.941h-13.068v8.404h13.068c1.171,0,2.121-0.949,2.121-2.121v-4.163
						C275.818,294.89,274.868,293.941,273.697,293.941z"/>
					<g>
						<circle style="fill:none;stroke:#FFFFFF;stroke-width:0.6808;stroke-miterlimit:10;" cx="266.515" cy="297.326" r="2.213"/>
						
							<line style="fill:none;stroke:#FFFFFF;stroke-width:0.6808;stroke-miterlimit:10;" x1="268.223" y1="298.732" x2="270.58" y2="301.089"/>
					</g>
					<polyline style="fill:none;stroke:#FFFFFF;stroke-width:1.5212;stroke-linecap:round;stroke-miterlimit:10;" points="
						286.351,292.324 291.31,292.324 293.691,299.336 303.851,299.336 304.947,293.802 					"/>
					<ellipse style="fill:#F5AD49;" cx="298.559" cy="293.928" rx="2.123" ry="2.388"/>
					<circle style="fill:#FFFFFF;" cx="294.855" cy="303.267" r="1.831"/>
					<circle style="fill:#FFFFFF;" cx="301.681" cy="303.267" r="1.831"/>
					<g>
						<path style="fill:#374C7F;" d="M283.801,409.126h-69.812c-1.408,0-2.549-1.142-2.549-2.55v-6.232
							c0-1.408,1.142-2.55,2.549-2.55h69.812c1.408,0,2.55,1.142,2.55,2.55v6.232C286.351,407.985,285.209,409.126,283.801,409.126z
							"/>
						<path style="fill:#FF4747;" d="M283.801,407.776h-69.812c-1.408,0-2.549-1.141-2.549-2.549v-6.232
							c0-1.408,1.142-2.549,2.549-2.549h69.812c1.408,0,2.55,1.142,2.55,2.549v6.232
							C286.351,406.634,285.209,407.776,283.801,407.776z"/>
					</g>
					<g>
						<polygon style="fill:#F5AD49;" points="250.478,356.409 251.93,359.35 255.176,359.822 252.827,362.111 253.382,365.344 
							250.478,363.818 247.575,365.344 248.13,362.111 245.781,359.822 249.027,359.35 						"/>
						<polygon style="fill:#F5AD49;" points="260.777,356.409 262.228,359.35 265.474,359.822 263.125,362.111 263.68,365.344 
							260.777,363.818 257.873,365.344 258.428,362.111 256.079,359.822 259.325,359.35 						"/>
						<polygon style="fill:#F5AD49;" points="271.075,356.409 272.526,359.35 275.772,359.822 273.424,362.111 273.978,365.344 
							271.075,363.818 268.171,365.344 268.726,362.111 266.377,359.822 269.623,359.35 						"/>
						<polygon style="fill:#F5AD49;" points="281.373,356.409 282.825,359.35 286.071,359.822 283.722,362.111 284.276,365.344 
							281.373,363.818 278.47,365.344 279.024,362.111 276.675,359.822 279.921,359.35 						"/>
						<polygon style="fill:#F5AD49;" points="291.671,356.409 293.123,359.35 296.369,359.822 294.02,362.111 294.574,365.344 
							291.671,363.818 288.768,365.344 289.322,362.111 286.973,359.822 290.219,359.35 						"/>
					</g>
					<g>
						<path style="fill:#F5AD49;" d="M294.154,389.875h-86.689c-1.749,0-3.166-1.417-3.166-3.166v-7.738
							c0-1.749,1.417-3.166,3.166-3.166h86.689c1.749,0,3.166,1.417,3.166,3.166v7.738
							C297.32,388.458,295.903,389.875,294.154,389.875z"/>
						<g>
							<g>
								<rect x="270.245" y="378.459" style="fill:#374C7F;" width="1.66" height="8.762"/>
								<rect x="266.694" y="382.01" style="fill:#374C7F;" width="8.762" height="1.66"/>
								
									<rect x="270.245" y="378.459" transform="matrix(0.7071 -0.7071 0.7071 0.7071 -191.3131 303.8102)" style="fill:#374C7F;" width="1.66" height="8.762"/>
								
									<rect x="266.694" y="382.01" transform="matrix(0.7071 -0.7071 0.7071 0.7071 -191.3165 303.8298)" style="fill:#374C7F;" width="8.762" height="1.66"/>
							</g>
							<g>
								<rect x="256.241" y="378.459" style="fill:#374C7F;" width="1.66" height="8.762"/>
								<rect x="252.69" y="382.01" style="fill:#374C7F;" width="8.762" height="1.66"/>
								
									<rect x="256.241" y="378.459" transform="matrix(0.7071 -0.7071 0.7071 0.7071 -195.4146 293.9082)" style="fill:#374C7F;" width="1.66" height="8.762"/>
								
									<rect x="252.69" y="382.01" transform="matrix(0.7071 -0.7071 0.7071 0.7071 -195.4184 293.9274)" style="fill:#374C7F;" width="8.762" height="1.66"/>
							</g>
							<g>
								<rect x="242.238" y="378.459" style="fill:#374C7F;" width="1.66" height="8.762"/>
								<rect x="238.687" y="382.01" style="fill:#374C7F;" width="8.762" height="1.66"/>
								
									<rect x="242.238" y="378.459" transform="matrix(0.7071 -0.7071 0.7071 0.7071 -199.5162 284.0062)" style="fill:#374C7F;" width="1.66" height="8.762"/>
								
									<rect x="238.687" y="382.01" transform="matrix(0.7071 -0.7071 0.7071 0.7071 -199.5204 284.0251)" style="fill:#374C7F;" width="8.762" height="1.66"/>
							</g>
							<g>
								<rect x="228.234" y="378.459" style="fill:#374C7F;" width="1.66" height="8.762"/>
								<rect x="224.683" y="382.01" style="fill:#374C7F;" width="8.762" height="1.66"/>
								
									<rect x="228.234" y="378.459" transform="matrix(0.7071 -0.7071 0.7071 0.7071 -203.6177 274.1042)" style="fill:#374C7F;" width="1.66" height="8.762"/>
								
									<rect x="224.683" y="382.01" transform="matrix(0.7071 -0.7071 0.7071 0.7071 -203.6223 274.1227)" style="fill:#374C7F;" width="8.762" height="1.66"/>
							</g>
						</g>
					</g>
					<circle style="fill:#374C7F;" cx="102.648" cy="277.297" r="3.045"/>
					<circle style="fill:#FF4747;" cx="114.883" cy="277.297" r="3.045"/>
					<circle style="fill:#FFFFFF;" cx="127.118" cy="277.297" r="3.045"/>
					
						<line style="fill:none;stroke:#45619B;stroke-width:2.0751;stroke-linecap:round;stroke-miterlimit:10;" x1="204.299" y1="321.815" x2="297.32" y2="321.815"/>
					
						<line style="fill:none;stroke:#45619B;stroke-width:2.0751;stroke-linecap:round;stroke-miterlimit:10;" x1="204.299" y1="335.286" x2="297.32" y2="335.286"/>
					
						<line style="fill:none;stroke:#45619B;stroke-width:2.0751;stroke-linecap:round;stroke-miterlimit:10;" x1="204.299" y1="348.758" x2="297.32" y2="348.758"/>
					
						<line style="fill:none;stroke:#45619B;stroke-width:2.0751;stroke-linecap:round;stroke-miterlimit:10;" x1="204.299" y1="362.23" x2="239.383" y2="362.23"/>
					<g>
						<polygon style="fill:#BC3535;" points="140.524,336.001 137.836,323.06 150.38,316.688 158.444,320.571 161.43,329.331 
							161.43,336.001 152.272,358.201 146.598,358.201 						"/>
						<path style="fill:#FF4747;" d="M134.186,328.655c0,0-18.197,5.079-21.481,11.349l-9.558,22.1l18.218,5.973l2.987-5.674
							l-0.298,42.109h51.364v-44.2l3.288,5.872l17.618-4.678l-9.558-22.996c0,0-7.112-8.96-22-9.857l-8.899,7.163l-6.132,18.501
							l-4.919-18.501l-1.179,0.183L134.186,328.655"/>
						<path style="fill:#1A171B;" d="M134.186,328.655"/>
						<polygon style="fill:#FFFFFF;" points="144.815,335.818 141.021,337.815 149.774,354.816 158.82,337.944 155.866,335.818 
							149.633,353.422 						"/>
						<rect x="156.917" y="352.228" style="fill:#FFFFFF;" width="12.842" height="1.991"/>
						<g style="opacity:0.35;">
							<path style="fill:#653239;" d="M186.766,338.512c0,0-7.112-8.96-22-9.857l-4.118,3.314c0.289,0.021,0.552,0.054,0.783,0.1
								c3.015,0.607,19.17,10.163,19.17,10.163l10.146,20.756l5.577-1.481L186.766,338.512z"/>
							<path style="fill:#653239;" d="M134.186,328.655c0,0-18.197,5.079-21.481,11.349l-9.558,22.1l7.88,2.583
								c1.64-4.031,4.353-10.698,8.845-21.736c2.615-1.55,14.806-5.295,22.835-7.674L134.186,328.655z"/>
						</g>
						<path style="fill:#FFFFFF;" d="M162.176,322.263c6.869,12.543,0.26,18.282,0.26,18.282l-6.571-4.727
							c1.184-1.022,2.148-2.869,2.549-4.355c1.51-5.596-1.456-11.559-7.397-12.563c-2.666-0.452-6.206,0.705-8.284,2.443
							c-3.018,2.527-3.347,7.356-1.476,10.703c0.239,0.427,2.839,4.151,3.557,3.773c-0.015,0.008-8.987,4.727-8.987,4.727
							c-4.48-10.751,2.008-18.581,2.008-18.581s3.75-5.676,11.797-5.674C149.633,316.289,157.844,316.041,162.176,322.263z"/>
					</g>
				</g>
			</g>
		</g>
		<path style="fill:#131A2B;" d="M660.129,446.723c0,1.491-78.287,2.699-174.859,2.699c-96.572,0-174.859-1.208-174.859-2.699
			c0-1.491,78.287-2.699,174.859-2.699C581.841,444.023,660.129,445.232,660.129,446.723z"/>
		<g>
			<g>
				<g>
					<g>
						<g>
							<path style="fill:#A4BDDA;" d="M597.053,362.827c0,0,35.18-85.711,68.501-62.329c11.891,9.366-64.907,67.529-64.907,67.529
								L597.053,362.827z"/>
							<path style="fill:none;stroke:#FFFFFF;stroke-width:0.747;stroke-miterlimit:10;" d="M653.308,304.224
								c0,0-40.949,35.036-51.657,51.477"/>
							<path style="fill:none;stroke:#FFFFFF;stroke-width:0.747;stroke-miterlimit:10;" d="M624.181,330.752
								c0,0,2.897-5.127,2.516-15.118"/>
							<path style="fill:#7590AA;" d="M610.784,360.127l29.097-59.183c-23.539,14.902-42.828,61.883-42.828,61.883l3.164,4.579
								l3.332-1.606C605.315,364.433,607.802,362.494,610.784,360.127z"/>
							<path style="fill:#B4D1ED;" d="M589.284,368.21c0,0,0.341-136.547,56.841-124.876c20.711,5.543-49.31,129.747-49.31,129.747
								L589.284,368.21z"/>
							<path style="fill:none;stroke:#FFFFFF;stroke-width:0.747;stroke-miterlimit:10;" d="M633.69,252.156
								c0,0-33.75,68.673-39.259,111.18"/>
							<path style="fill:none;stroke:#FFFFFF;stroke-width:0.747;stroke-miterlimit:10;" d="M643.689,264.058
								c0,0-14.324,5.475-19.977,9.801"/>
							<path style="fill:none;stroke:#FFFFFF;stroke-width:0.747;stroke-miterlimit:10;" d="M606.909,277.883
								c0,0,4.737,13.359,5.55,23.172"/>
							<path style="fill:none;stroke:#FFFFFF;stroke-width:0.747;stroke-miterlimit:10;" d="M619.058,317.472
								c0,0-9.185,1.87-14.874,6.566"/>
						</g>
						<path style="fill:none;stroke:#FFFFFF;stroke-width:0.747;stroke-miterlimit:10;" d="M636.741,318.948
							c0,0,9.214-3.292,19.52-2.397"/>
					</g>
					<g>
						<g>
							<path style="fill:#A4BDDA;" d="M594.42,361.682c0,0-34.832-48.325-52.166-28.715c-6.032,7.637,50.698,32.505,50.698,32.505
								L594.42,361.682z"/>
							<path style="fill:none;stroke:#FFFFFF;stroke-width:0.4803;stroke-miterlimit:10;" d="M550.469,333.463
								c0,0,30.851,15.775,40.009,24.452"/>
							<path style="fill:none;stroke:#FFFFFF;stroke-width:0.4803;stroke-miterlimit:10;" d="M572.654,345.689
								c0,0-2.579-2.772-3.837-9.077"/>
							<path style="fill:#7590AA;" d="M585.43,362.05l-27.056-32.649c16.95,5.793,36.046,32.281,36.046,32.281l-1.292,3.337
								l-2.324-0.505C589.495,363.924,587.649,363.084,585.43,362.05z"/>
							<path style="fill:#B4D1ED;" d="M600.084,363.885c0,0-20.661-85.328-54.242-69.57c-12.12,6.568,50.261,73.744,50.261,73.744
								L600.084,363.885z"/>
							<path style="fill:none;stroke:#FFFFFF;stroke-width:0.4803;stroke-miterlimit:10;" d="M554.939,297.969
								c0,0,31.387,37.886,41.197,63.64"/>
							<path style="fill:none;stroke:#FFFFFF;stroke-width:0.4803;stroke-miterlimit:10;" d="M550.469,306.908
								c0,0,9.776,1.278,13.959,3.137"/>
							<path style="fill:none;stroke:#FFFFFF;stroke-width:0.4803;stroke-miterlimit:10;" d="M575.537,310.045
								c0,0-0.961,9.063,0,15.32"/>
							<path style="fill:none;stroke:#FFFFFF;stroke-width:0.4803;stroke-miterlimit:10;" d="M573.869,336.618
								c0,0,6.023-0.206,10.283,1.879"/>
						</g>
						<path style="fill:none;stroke:#FFFFFF;stroke-width:0.4803;stroke-miterlimit:10;" d="M563.033,340.189
							c0,0-6.254-0.679-12.564,1.424"/>
					</g>
					<rect x="570.736" y="361.033" style="fill:#C92D3C;" width="47.731" height="84.48"/>
				</g>
				<rect x="570.736" y="375.082" style="fill:#FF4747;" width="47.731" height="25.881"/>
			</g>
			<g>
				<g>
					<g>
						<g>
							<path style="fill:#A4BDDA;" d="M527.357,378.915c0,0-27.512-67.029-53.57-48.743c-9.299,7.325,50.76,52.81,50.76,52.81
								L527.357,378.915z"/>
							<path style="fill:none;stroke:#FFFFFF;stroke-width:0.5842;stroke-miterlimit:10;" d="M483.363,333.086
								c0,0,32.023,27.399,40.398,40.257"/>
							<path style="fill:none;stroke:#FFFFFF;stroke-width:0.5842;stroke-miterlimit:10;" d="M506.142,353.832
								c0,0-2.266-4.009-1.968-11.823"/>
							<path style="fill:#7590AA;" d="M516.619,376.804l-22.755-46.283c18.408,11.654,33.493,48.395,33.493,48.395l-2.474,3.581
								l-2.606-1.256C520.896,380.172,518.951,378.655,516.619,376.804z"/>
							<path style="fill:#B4D1ED;" d="M533.433,383.126c0,0-0.267-106.784-44.452-97.657
								c-16.197,4.335,38.562,101.467,38.562,101.467L533.433,383.126z"/>
							<path style="fill:none;stroke:#FFFFFF;stroke-width:0.5842;stroke-miterlimit:10;" d="M498.705,292.367
								c0,0,26.393,53.705,30.702,86.947"/>
							<path style="fill:none;stroke:#FFFFFF;stroke-width:0.5842;stroke-miterlimit:10;" d="M490.886,301.675
								c0,0,11.202,4.281,15.623,7.665"/>
							<path style="fill:none;stroke:#FFFFFF;stroke-width:0.5842;stroke-miterlimit:10;" d="M519.649,312.487
								c0,0-3.704,10.447-4.34,18.121"/>
							<path style="fill:none;stroke:#FFFFFF;stroke-width:0.5842;stroke-miterlimit:10;" d="M510.148,343.447
								c0,0,7.183,1.463,11.632,5.135"/>
						</g>
						<path style="fill:none;stroke:#FFFFFF;stroke-width:0.5842;stroke-miterlimit:10;" d="M496.32,344.601
							c0,0-7.206-2.575-15.265-1.874"/>
					</g>
					<g>
						<g>
							<path style="fill:#A4BDDA;" d="M529.416,378.021c0,0,27.24-37.792,40.795-22.456c4.718,5.973-39.647,25.42-39.647,25.42
								L529.416,378.021z"/>
							<path style="fill:none;stroke:#FFFFFF;stroke-width:0.3756;stroke-miterlimit:10;" d="M563.787,355.952
								c0,0-24.126,12.337-31.288,19.122"/>
							<path style="fill:none;stroke:#FFFFFF;stroke-width:0.3756;stroke-miterlimit:10;" d="M546.438,365.513
								c0,0,2.017-2.168,3.001-7.098"/>
							<path style="fill:#7590AA;" d="M536.446,378.308l21.159-25.533c-13.255,4.53-28.189,25.245-28.189,25.245l1.011,2.609
								l1.818-0.395C533.268,379.774,534.711,379.117,536.446,378.308z"/>
							<path style="fill:#B4D1ED;" d="M524.987,379.743c0,0,16.158-66.73,42.419-54.406c9.478,5.136-39.306,57.67-39.306,57.67
								L524.987,379.743z"/>
							<path style="fill:none;stroke:#FFFFFF;stroke-width:0.3756;stroke-miterlimit:10;" d="M560.292,328.194
								c0,0-24.545,29.628-32.217,49.768"/>
							<path style="fill:none;stroke:#FFFFFF;stroke-width:0.3756;stroke-miterlimit:10;" d="M563.787,335.185
								c0,0-7.645,1-10.916,2.453"/>
							<path style="fill:none;stroke:#FFFFFF;stroke-width:0.3756;stroke-miterlimit:10;" d="M544.183,337.638
								c0,0,0.752,7.087,0,11.981"/>
							<path style="fill:none;stroke:#FFFFFF;stroke-width:0.3756;stroke-miterlimit:10;" d="M545.488,358.419
								c0,0-4.71-0.161-8.042,1.469"/>
						</g>
						<path style="fill:none;stroke:#FFFFFF;stroke-width:0.3756;stroke-miterlimit:10;" d="M553.962,361.212
							c0,0,4.891-0.531,9.826,1.114"/>
					</g>
					<rect x="510.611" y="377.512" style="fill:#C92D3C;" width="37.327" height="66.066"/>
				</g>
				<rect x="510.611" y="388.5" style="fill:#FF4747;" width="37.327" height="20.24"/>
			</g>
			<g>
				<path style="fill:none;stroke:#CE7A2E;stroke-width:2.4146;stroke-miterlimit:10;" d="M544.465,225.792h-0.354
					c-9.682,0-17.53,7.849-17.53,17.53v19.438h35.415v-19.438C561.995,233.64,554.147,225.792,544.465,225.792z"/>
				<path style="fill:none;stroke:#CE7A2E;stroke-width:2.4146;stroke-miterlimit:10;" d="M550.395,225.792h-0.354
					c-9.682,0-17.53,7.849-17.53,17.53v19.438h35.415v-19.438C567.925,233.64,560.076,225.792,550.395,225.792z"/>
				<rect x="484.728" y="367.392" style="fill:#374C7F;" width="115.903" height="78.878"/>
				<rect x="484.728" y="367.392" style="fill:#28355F;" width="44.268" height="78.878"/>
				<rect x="506.862" y="331.172" style="fill:#FF4747;" width="83.305" height="36.22"/>
				<rect x="564.411" y="331.172" style="fill:#BC3535;" width="25.756" height="36.22"/>
				<polygon style="fill:#F5AD49;" points="576.885,257.928 518.133,257.928 514.509,331.172 580.509,331.172 				"/>
				<polygon style="opacity:0.53;fill:#440000;" points="506.862,367.392 564.411,352.813 590.167,367.392 				"/>
				<path style="fill:#E37427;" d="M514.509,331.172c0,0,38.128-14.586,42.531-73.244c19.845,0,19.845,0,19.845,0l3.624,73.244
					H514.509z"/>
			</g>
		</g>
		<g>
			<rect x="367.591" y="251.394" style="fill:#E37427;" width="16.265" height="29.342"/>
			<path style="fill:#FF8076;" d="M410.704,365.225l-9.153,81.044h-36.622c0,0-0.708-8.923,7.548-11.037
				c9.901-71.983,10.114-73.874,10.114-73.874L410.704,365.225z"/>
			<path style="fill:none;stroke:#A50000;stroke-width:0.9198;stroke-miterlimit:10;" d="M390.071,421.896
				c0,0-0.556,6.208,6.473,6.668"/>
			<path style="opacity:0.42;fill:#FFFFFF;" d="M391.805,362.626l-9.215-1.267c0,0-0.213,1.891-10.114,73.874
				c-8.256,2.114-7.548,11.037-7.548,11.037h15.261L391.805,362.626z"/>
			<path style="fill:#FF8076;" d="M449.986,362.966l2.018,83.304h-36.762c0,0-1.525-7.818,6.366-11.037c0-72.661,0-72.267,0-72.267
				H449.986z"/>
			<path style="fill:#440000;" d="M449.986,362.965h-28.379c0,0.003,0,0.161,0,6.966c7.696,8.106,20.775,9.398,28.773,9.339
				L449.986,362.965z"/>
			<path style="opacity:0.42;fill:#FFFFFF;" d="M435.377,362.965h-13.769c0,0.005,0,0.742,0,72.267
				c-7.891,3.219-6.366,11.037-6.366,11.037h18.23L435.377,362.965z"/>
			<path style="fill:#440000;" d="M381.594,368.748c4.181,3.499,13.651,10.069,27.378,11.817l1.733-15.34l-28.114-3.867
				C382.591,361.358,382.547,361.746,381.594,368.748z"/>
			<path style="fill:#28355F;" d="M381.172,427.113h-0.385c-4.382,0-7.935,3.553-7.935,7.935v0.184h16.255v-0.184
				C389.107,430.666,385.554,427.113,381.172,427.113z"/>
			<path style="fill:#394C77;" d="M364.929,446.27h36.622l1.247-11.037h-30.321C364.221,437.347,364.929,446.27,364.929,446.27z"/>
			<path style="fill:#374C7F;" d="M420.884,265.727l-7.415,105.516c0,0-13.829,5.061-34.302-4.718l0,0l18.829-103.517
				L420.884,265.727z"/>
			<path style="fill:#28355F;" d="M404.637,372.539c5.616-0.124,8.832-1.295,8.832-1.295l12.809-106.924h-11.17L404.637,372.539z"/>
			<path style="fill:#FFFFFF;" d="M387.809,436.929c0,0.937-0.76,1.696-1.696,1.696h-12.862c-0.937,0-1.696-0.759-1.696-1.696l0,0
				c0-0.937,0.759-1.696,1.696-1.696h12.862C387.05,435.233,387.809,435.992,387.809,436.929L387.809,436.929z"/>
			<path style="fill:#394C77;" d="M415.242,446.27h36.762l-0.267-11.037h-30.129C413.717,438.452,415.242,446.27,415.242,446.27z"/>
			<path style="fill:#FFFFFF;" d="M437.863,436.929c0,0.937-0.759,1.696-1.696,1.696h-12.862c-0.937,0-1.696-0.759-1.696-1.696l0,0
				c0-0.937,0.76-1.696,1.696-1.696h12.862C437.103,435.233,437.863,435.992,437.863,436.929L437.863,436.929z"/>
			<path style="fill:#28355F;" d="M429.928,427.113h-0.385c-4.382,0-7.935,3.553-7.935,7.935v0.184h16.255v-0.184
				C437.863,430.666,434.31,427.113,429.928,427.113z"/>
			<path style="fill:none;stroke:#A50000;stroke-width:0.9198;stroke-miterlimit:10;" d="M440.601,421.896
				c0,0-0.556,6.208,6.473,6.668"/>
			<path style="fill:#374C7F;" d="M446.514,263.008l7.032,105.542c0,0-13.01,6.898-34.625,0c0-74.96,0-74.96,0-74.96
				s-8.257-13.903-6.888-26.307c0.909-7.724,0.909-7.724,0.909-7.724L446.514,263.008z"/>
			<path style="fill:#28355F;" d="M444.973,371.037c5.546-0.888,8.574-2.487,8.574-2.487l-7.032-105.542l-5.913-0.607
				L444.973,371.037z"/>
			<path style="fill:#28355F;" d="M440.601,262.401L440.601,262.401l-12.2-1.253c0.334,6.91,2.319,22.274,13.234,26.954
				C440.601,262.401,440.601,262.401,440.601,262.401z"/>
			<path style="fill:#072847;" d="M447.288,274.624l-0.774-11.616l-33.571-3.449c0,0,0,0.002-0.607,5.152l-14.339-1.703
				C397.997,263.008,414.184,277.733,447.288,274.624z"/>
			<path style="fill:#D1544E;" d="M408.804,167.813c0,0-7.818,1.61-13.337,20.924c-5.518,19.315-12.14,43.229-12.14,43.229
				s-45.345-2.606-49.024,15.943c69.748,0,69.748,0,69.748,0L408.804,167.813z"/>
			<path style="fill:#BC3535;" d="M390.003,208.047c4.44,1.606,10.482,3.365,16.198,3.643l2.603-43.877
				c0,0-7.818,1.61-13.337,20.924C393.674,195.016,391.764,201.776,390.003,208.047z"/>
			<polygon style="fill:#440000;" points="400.741,200.857 393.033,241.624 398.513,241.624 			"/>
			<path style="fill:#FF4747;" d="M438.61,161.72l20.091,18.74l-12.187,82.548c0,0-29.202,10.577-48.517,0
				c1.38-53.806,0.602-64.664,10.807-95.195c19.223-6.551,20.495-6.093,20.495-6.093H438.61z"/>
			<polygon style="fill:#FF8076;" points="437.661,142.168 438.61,161.72 425.775,180.46 423.707,165.169 424.975,153.557 
				433.791,141.83 			"/>
			<path style="fill:#440000;" d="M434.89,145.222l-3.12-0.704l-6.795,9.039l-1.268,11.612
				C433.207,158.846,434.89,145.222,434.89,145.222z"/>
			<path style="fill:#7A0000;" d="M418.539,134.472c0,0-9.276,0-10.77-7.128c-0.575-2.529,3.765-5.634,7.459-2.299
				c-1.94-6.898,0.146-8.623,4.909-8.623c4.763,0,9.017,7.703,9.132,8.048c0.575-5.404,5.289-5.748,6.208,1.61
				c4.139,2.184,7.03,2.791,6.736,8.968c-0.295,6.177-2.252,15.101-4.321,17.093l-0.021-0.012c-1.293-0.767-2.162-2.086-2.357-3.577
				l-0.507-3.893l-1.801-4.009l-6.022-7.786L418.539,134.472z"/>
			<path style="opacity:0.42;fill:#FFFFFF;" d="M431.124,130.403c0,0-11.3-7.522-12.587-13.898c-3.605,0.41-5.015,2.473-3.309,8.54
				c-3.693-3.334-8.034-0.23-7.459,2.299c1.495,7.128,10.77,7.128,10.77,7.128l5.781-1.076L431.124,130.403z"/>
			<path style="fill:#FF8076;" d="M416.882,133.1c-0.56,4.606-1.595,14.092-1.654,21.716c-0.035,4.445,4.689,7.391,8.634,5.341
				c5.587-2.903,10.357-7.789,11.615-18.481l-1.686,0.153l0.46-10.73c0,0-7.98-2.128-13.835-1.509
				C418.564,129.787,417.107,131.252,416.882,133.1z"/>
			<path style="fill:#7A0000;" d="M433.791,141.83l0.164-3.825l0,0c0,0-0.624,7.198-3.843,9.804
				c-3.219,2.606-8.614,1.25-11.65,1.226c-1.104-0.008-2.153,0.039-3.043,0.102c-0.105,1.937-0.176,3.861-0.19,5.678
				c-0.035,4.446,4.691,7.393,8.636,5.342c5.586-2.903,10.355-7.789,11.613-18.48L433.791,141.83z"/>
			<path style="fill:#7A0000;" d="M427.184,142.248c0,0.319-0.315,0.578-0.705,0.578l0,0c-0.389,0-0.705-0.259-0.705-0.578v-1.85
				c0-0.319,0.316-0.578,0.705-0.578l0,0c0.389,0,0.705,0.259,0.705,0.578V142.248z"/>
			<path style="fill:#7A0000;" d="M418.539,143.384c0,0.314-0.315,0.569-0.705,0.569l0,0c-0.389,0-0.705-0.255-0.705-0.569v-1.821
				c0-0.314,0.315-0.569,0.705-0.569l0,0c0.389,0,0.705,0.255,0.705,0.569V143.384z"/>
			<polyline style="fill:none;stroke:#BA4A4A;stroke-width:0.4599;stroke-miterlimit:10;" points="420.701,142.168 420.137,148.276 
				423.05,148.276 			"/>
			<path style="fill:#FFFFFF;" d="M418.539,150.813h6.202C424.741,150.813,421.585,153.798,418.539,150.813z"/>
			<polygon style="fill:#440000;" points="440.536,197.935 435.477,236.073 454.62,241.624 			"/>
			<path style="fill:#FF8076;" d="M435.477,141.677l0.805-4.583c0,0,6.668-2.277,5.863,3.356c-0.69,3.909-7.138,4.208-7.138,4.208
				L435.477,141.677z"/>
			<polygon style="fill:#BC3535;" points="433.206,169.609 436.653,182.951 442.307,165.169 438.61,161.72 			"/>
			<polygon style="fill:#BC3535;" points="424.676,172.335 418.539,178.336 421.091,163.796 423.95,162.945 423.707,165.169 			"/>
			<path style="opacity:0.42;fill:#FFFFFF;" d="M431.124,130.403c-2.86-0.557-7.168-1.186-10.708-0.812
				c-1.852,0.196-3.309,1.661-3.534,3.51c-0.56,4.606-1.595,14.092-1.654,21.716c-0.029,3.716,3.268,6.372,6.654,5.95
				c0.844-1.197,2.079-3.045,3.892-5.923C430.069,148.026,430.96,134.097,431.124,130.403z"/>
			<path style="fill:none;stroke:#7A0000;stroke-width:1.8395;stroke-linecap:round;stroke-miterlimit:10;" d="M423.707,137.282
				c0,0,2.537-2.349,5.074-0.658"/>
			<path style="fill:none;stroke:#7A0000;stroke-width:1.8395;stroke-linecap:round;stroke-miterlimit:10;" d="M419.009,137.282
				c0,0-2.161-0.846-3.383,0"/>
			
				<line style="fill:none;stroke:#A50000;stroke-width:0.9198;stroke-miterlimit:10;" x1="435.323" y1="142.826" x2="440.536" y2="139.819"/>
			
				<line style="fill:none;stroke:#80C8D4;stroke-width:0.9198;stroke-miterlimit:10;" x1="440.536" y1="274.624" x2="444.973" y2="371.037"/>
			
				<line style="fill:none;stroke:#80C8D4;stroke-width:0.9198;stroke-miterlimit:10;" x1="413.52" y1="280.736" x2="404.637" y2="372.539"/>
			<rect x="372.464" y="280.736" style="fill:#F5AD49;" width="7.338" height="165.533"/>
			<rect x="367.591" y="254.88" style="fill:#E37427;" width="16.265" height="4.679"/>
			<rect x="346.322" y="442.645" style="fill:#E37427;" width="58.316" height="3.625"/>
			<rect x="316.828" y="247.909" style="fill:#F5AD49;" width="118.179" height="6.971"/>
			<rect x="352.239" y="241.624" style="fill:#FFFFFF;" width="47.787" height="6.285"/>
			<rect x="318.348" y="241.624" style="fill:#28355F;" width="33.89" height="6.285"/>
			<polygon style="fill:#374C7F;" points="320.438,197.093 286.548,197.093 320.438,241.624 354.329,241.624 			"/>
			<polygon style="fill:#FFFFFF;" points="318.348,197.093 284.458,197.093 318.348,241.624 352.239,241.624 			"/>
			<polygon style="fill:#E37427;" points="406.045,247.909 420.884,254.88 432.713,254.88 414.737,247.909 			"/>
			<path style="fill:#DEF6F8;" d="M319.231,218.329c3.251,1.386,5.224,4.067,4.405,5.987c-0.819,1.92-4.118,2.353-7.37,0.967
				c-3.252-1.386-5.224-4.067-4.405-5.987C312.68,217.376,315.979,216.943,319.231,218.329z"/>
			<rect x="356.645" y="243.147" style="fill:#374C7F;" width="10.946" height="3.01"/>
			<rect x="370.66" y="243.147" style="fill:#374C7F;" width="10.946" height="3.01"/>
			<path style="fill:#FF8076;" d="M458.701,180.46c0,0,3.909,6.438,4.522,22.687c0.359,9.524,0.297,30.062,0.185,45.432
				c-0.068,9.295-9.369,15.676-18.069,12.404l-45.312-19.359h-16.699c0,0-3.496-4.139,7.848-6.898c4.952-1.205,9.905-2,13.913-2.514
				c5.305-0.68,10.68-0.442,15.905,0.699l19.542,4.268v-39.243C440.536,197.935,440.689,183.526,458.701,180.46z"/>
			<path style="fill:#BC3535;" d="M463.223,203.147c-0.613-16.249-4.522-22.687-4.522-22.687
				c-18.012,3.066-18.165,17.475-18.165,17.475v23.319c5.391-0.04,14.317-0.523,22.938-2.839
				C463.439,212.287,463.363,206.873,463.223,203.147z"/>
			
				<line style="fill:none;stroke:#A50000;stroke-width:0.9198;stroke-linecap:round;stroke-miterlimit:10;" x1="440.536" y1="237.178" x2="449.986" y2="239.487"/>
			<path style="opacity:0.49;fill:#B0322F;" d="M445.338,260.983c8.533,3.209,17.637-2.869,18.049-11.873
				c-1.74-0.768-3.659-1.201-5.683-1.201c-7.232,0-13.184,5.446-13.999,12.46L445.338,260.983z"/>
			<path style="fill:none;stroke:#A50000;stroke-width:0.9198;stroke-linecap:round;stroke-miterlimit:10;" d="M383.856,237.972
				c0,0,10.842-3.017,16.17-2.557"/>
		</g>
	</g>
</g>
</svg>
